<svg height="512" viewBox="0 0 48 48" width="512" xmlns="http://www.w3.org/2000/svg"><g id="Icons"><path d="m7 33h4a1 1 0 0 1 1 1v10a0 0 0 0 1 0 0h-6a0 0 0 0 1 0 0v-10a1 1 0 0 1 1-1z" fill="#ff826e"/><path d="m27 25h4a1 1 0 0 1 1 1v18a0 0 0 0 1 0 0h-6a0 0 0 0 1 0 0v-18a1 1 0 0 1 1-1z" fill="#ff826e"/><path d="m17 29h4a1 1 0 0 1 1 1v14a0 0 0 0 1 0 0h-6a0 0 0 0 1 0 0v-14a1 1 0 0 1 1-1z" fill="#73cde6"/><path d="m37 21h4a1 1 0 0 1 1 1v22a0 0 0 0 1 0 0h-6a0 0 0 0 1 0 0v-22a1 1 0 0 1 1-1z" fill="#73cde6"/><path d="m45.707 4.293a1 1 0 0 0 -.95-.263l-8 2a1 1 0 0 0 .486 1.94l4.733-1.183-10.412 11.213h-15.564a1 1 0 0 0 -.61.208l-13 10a1 1 0 1 0 1.22 1.584l12.73-9.792h15.66a1 1 0 0 0 .733-.319l10.353-11.15-1.056 4.226a1 1 0 0 0 .727 1.213.976.976 0 0 0 .243.03 1 1 0 0 0 .969-.757l2-8a1 1 0 0 0 -.262-.95z" fill="#6cc48f"/><rect fill="#656d78" height="2" rx="1" width="44" x="2" y="42"/></g></svg>