<svg id="Layer_1" viewBox="0 0 512 512" xmlns="http://www.w3.org/2000/svg" data-name="Layer 1"><path d="m265.851 494.776c9.588 8.044 23.285 8.86 32.145 0a22.746 22.746 0 0 0 1.924-29.876 22.7 22.7 0 0 0 33.807-30.134l1.4 1.4a22.7 22.7 0 0 0 34.073-29.866 22.709 22.709 0 0 0 32.9-31.3c-2.3-2.622-5.333-5.624-8.947-8.976l-99.672-99.672-34.186-34.215c-29.668-33.515-136.073-8.626-170.084-7.519l-38.472 123.04 60.3 17.34z" fill="#fbbd80" fill-rule="evenodd"/><path d="m403.176 376.044 55.665-35.177-36.08-116.255c-33.952-1.136-117.654-33.02-151.2-3.381l-9.356 8.248-74.105 67.905a25.732 25.732 0 0 0 34.477 38.208l70.907-69.275 107.973 107.983c.612.612 1.078 1.195 1.719 1.749z" fill="#f5ad65" fill-rule="evenodd"/><path d="m3.206 354.769 44.59-166.47 62.514 16.758-44.561 166.469z" fill="#69a7ff"/><path d="m401.69 205.057 62.543-16.758 44.561 166.499-62.514 16.728z" fill="#ff3d50"/><path d="m222.193 479.126a22.738 22.738 0 0 1 -32.962-31.33c.029-.058.088-.088.117-.146l16.437-17.166a22.749 22.749 0 0 1 33.02 31.3.779.779 0 0 1 -.175.146z" fill="#f5ad65" fill-rule="evenodd"/><path d="m189.348 447.65a22.745 22.745 0 1 1 -32.816-31.5l16.437-17.137a22.735 22.735 0 0 1 32.816 31.475z" fill="#f5ad65" fill-rule="evenodd"/><path d="m157.785 414.834a22.736 22.736 0 0 1 -32.845-31.446l11.016-11.483a22.725 22.725 0 1 1 32.787 31.476z" fill="#f5ad65" fill-rule="evenodd"/><path d="m260.372 505.035a22.644 22.644 0 0 1 -14.514 6.965h-3.964a22.727 22.727 0 0 1 -14.514-38.324c.059-.029.088-.088.146-.146l11.017-11.454a22.756 22.756 0 0 1 32.845 31.5z" fill="#f5ad65" fill-rule="evenodd"/><path d="m373.858 421.129-54.091-54.062a7.2 7.2 0 1 1 10.2-10.171l56.219 56.219a22.6 22.6 0 0 1 -16.986-6.815 22.783 22.783 0 0 1 4.663 14.834zm-69.275 58.579a22.655 22.655 0 0 0 -4.663-14.808 22.673 22.673 0 0 0 16.583 6.383l-50.478-50.477a7.192 7.192 0 1 0 -10.171 10.171zm33.807-30.108a22.569 22.569 0 0 0 -4.663-14.834l1.4 1.4a22.715 22.715 0 0 0 16.817 6.615l-53.944-53.943a7.2 7.2 0 1 0 -10.171 10.2z" fill="#f5ad65"/><g fill-rule="evenodd"><path d="m112.262 13.552v117.071a13.57 13.57 0 0 0 13.523 13.523h33.749a27.687 27.687 0 1 0 48.786 0h33.749a13.576 13.576 0 0 0 13.552-13.523v-117.071a13.582 13.582 0 0 0 -13.552-13.552h-116.284a13.576 13.576 0 0 0 -13.523 13.552z" fill="#ffab02"/><path d="m386.215 0h-33.515a27.289 27.289 0 0 1 2.652 11.833 27.672 27.672 0 1 1 -52.693-11.833h-33.515a13.576 13.576 0 0 0 -13.523 13.552v33.719a27.672 27.672 0 1 0 0 48.817v33.719a13.576 13.576 0 0 0 13.523 13.552h33.515a27.677 27.677 0 1 1 52.692-11.832 27.288 27.288 0 0 1 -2.652 11.832h33.516a13.582 13.582 0 0 0 13.552-13.552v-116.255a13.582 13.582 0 0 0 -13.552-13.552z" fill="#69a7ff"/><path d="m70.412 354.098-48.292-12.94 39.898-149.041-14.222-3.818-44.59 166.47 62.543 16.757z" fill="#5f96e6"/><path d="m504.423 338.448-48.03 12.882-2.04-7.636-31.883-119.111-6.295-23.403-14.485 3.877 4.721 17.632 34.653 129.398 5.216 19.439 62.514-16.728z" fill="#e82e41"/><path d="m159.534 144.146a27.7 27.7 0 0 0 24.393 40.743 28.587 28.587 0 0 0 5.946-.612 27.675 27.675 0 0 1 -18.473-40.131z" fill="#ed9e00"/><path d="m124.1 130.623v-117.071a13.582 13.582 0 0 1 13.547-13.552h-11.862a13.576 13.576 0 0 0 -13.523 13.552v117.071a13.57 13.57 0 0 0 13.523 13.523h11.862a13.576 13.576 0 0 1 -13.547-13.523z" fill="#ed9e00"/><path d="m265.938 129.807v-33.719a27.623 27.623 0 0 1 -10.317 3.118v30.6a13.576 13.576 0 0 0 13.523 13.552h10.317a13.576 13.576 0 0 1 -13.523-13.552z" fill="#5f96e6"/><path d="m247.694 98.885a27.7 27.7 0 0 1 0-54.411 29.732 29.732 0 0 0 -5.159-.467 27.672 27.672 0 0 0 0 55.344 29.733 29.733 0 0 0 5.159-.466z" fill="#5f96e6"/><path d="m255.621 13.552v30.6a27.623 27.623 0 0 1 10.317 3.118v-33.718a13.576 13.576 0 0 1 13.523-13.552h-10.317a13.576 13.576 0 0 0 -13.523 13.552z" fill="#5f96e6"/><path d="m332.852 104.335a27.661 27.661 0 0 1 22.5 27.192 27.288 27.288 0 0 1 -2.652 11.832h10.317a27.288 27.288 0 0 0 2.652-11.832 27.687 27.687 0 0 0 -27.657-27.687 27.221 27.221 0 0 0 -5.159.495z" fill="#5f96e6"/><path d="m338.011 39.519a27.686 27.686 0 0 0 27.657-27.686 27.289 27.289 0 0 0 -2.652-11.833h-10.316a27.289 27.289 0 0 1 2.652 11.833 27.661 27.661 0 0 1 -22.5 27.191 27.221 27.221 0 0 0 5.159.495z" fill="#5f96e6"/></g></svg>