<svg viewBox="0 0 512 512" xmlns="http://www.w3.org/2000/svg" xmlns:xlink="http://www.w3.org/1999/xlink"><radialGradient id="radial-gradient" cx="117.47" cy="125.4" gradientUnits="userSpaceOnUse" r="285.27"><stop offset="0" stop-color="#92f4fe"/><stop offset="1" stop-color="#1eb4eb"/></radialGradient><linearGradient id="linear-gradient" gradientUnits="userSpaceOnUse" x1="356.04" x2="177.19" y1="364.07" y2="185.22"><stop offset="0" stop-color="#13b601"/><stop offset=".51" stop-color="#13b601"/><stop offset="1" stop-color="#cbf4b4"/></linearGradient><linearGradient id="linear-gradient-2" x1="289.58" x2="170.8" xlink:href="#linear-gradient" y1="228.96" y2="110.18"/><g id="TRAVEL"><path d="m496.52 129.85c-13.44-49.47-64.89-100.93-114.37-114.37-30.34-7.56-70.98-15.35-126.15-15.48-55.17.13-95.81 7.92-126.15 15.48-49.47 13.44-100.93 64.89-114.37 114.37-7.56 30.34-15.35 70.98-15.48 126.15.13 55.17 7.92 95.81 15.48 126.15 13.44 49.48 64.9 100.93 114.37 114.37 30.34 7.56 71 15.35 126.15 15.48 55.16-.13 95.81-7.92 126.15-15.48 49.48-13.44 100.93-64.89 114.37-114.37 7.56-30.34 15.35-71 15.48-126.15-.13-55.17-7.92-95.81-15.48-126.15z" fill="#dff8ff"/><circle cx="256" cy="256" fill="url(#radial-gradient)" r="169.99"/><path d="m354.94 265.08-.94-12.31a23.52 23.52 0 0 0 -27.34-21.43l-22.06 3.66a6.38 6.38 0 0 1 -3.43-.36l-30.63-12.09a23.61 23.61 0 0 0 -12.36-1.35l-48 7.68a23.41 23.41 0 0 0 -19.59 20l-3 22a23.44 23.44 0 0 0 13.27 24.5l22.28 10.5a23.63 23.63 0 0 0 10 2.25h10.53a6.46 6.46 0 0 1 6.43 6.87l-2.33 39.83a23.43 23.43 0 0 0 3.61 14l12.36 19.52a23.54 23.54 0 0 0 36.93 3.65l23.46-24.64a23.63 23.63 0 0 0 6.41-14.17l3.78-42.89a6.43 6.43 0 0 1 .84-2.66l16.7-28.92a23.48 23.48 0 0 0 3.08-13.64z" fill="url(#linear-gradient)"/><path d="m312.17 122.51 14.79-21a170.12 170.12 0 0 0 -231.42 98.26l51.83-12.14a11.61 11.61 0 0 1 9.59 2l18.69 13.91a30.38 30.38 0 0 0 18.08 6 29.51 29.51 0 0 0 5.05-.43l14.84-2.54a30.29 30.29 0 0 0 22.12-16.66l24.18-50.13a11.56 11.56 0 0 1 12.28-6.43l10.56 1.65a30 30 0 0 0 29.41-12.49z" fill="url(#linear-gradient-2)"/></g></svg>