<?xml version="1.0" encoding="UTF-8" standalone="no"?>
<svg xmlns:rdf="http://www.w3.org/1999/02/22-rdf-syntax-ns#" xmlns="http://www.w3.org/2000/svg" xml:space="preserve" height="115.34" viewBox="0 0 543.8472 115.34038" width="543.85" version="1.1" xmlns:cc="http://creativecommons.org/ns#" xmlns:dc="http://purl.org/dc/elements/1.1/"><defs><clipPath id="e" clipPathUnits="userSpaceOnUse"><path d="m247.36 266.34h435.08v92.273h-435.08v-92.273z"/></clipPath><clipPath id="d" clipPathUnits="userSpaceOnUse"><path d="m0 595.28h841.89v-595.28h-841.89v595.28z"/></clipPath><clipPath id="c" clipPathUnits="userSpaceOnUse"><path d="m0 595.28h841.89v-595.28h-841.89v595.28z"/></clipPath><clipPath id="b" clipPathUnits="userSpaceOnUse"><path d="m279.62 358.61h-31.061s-1.201-11.417-1.201-36.522c0-25.104 18.989-37.796 32.262-44.191 13.276 6.395 32.264 19.087 32.264 44.191 0 25.105-1.201 36.522-1.201 36.522h-31.063z"/></clipPath><clipPath id="a" clipPathUnits="userSpaceOnUse"><path d="m0 595.28h841.89v-595.28h-841.89v595.28z"/></clipPath></defs><g clip-path="url(#e)" transform="matrix(1.25 0 0 -1.25 -309.2 448.26)"><g clip-path="url(#d)"><g transform="translate(340.16 298.05)"><path d="m0 0c4.346 0.074 7.012 3.383 6.937 7.505-0.098 4.223-2.74 6.888-6.837 6.913-5.012-0.025-6.865-4.32-6.839-7.185-0.075-3.333 1.777-7.183 6.739-7.233m0.1 17.158c5.703-0.049 9.776-3.678 9.899-9.529 0.099-5.728-3.999-10.27-10.048-10.37-6.888 0.074-9.851 5.358-9.776 9.974-0.026 4 2.962 9.901 9.925 9.925" fill="#00559a"/></g><g transform="translate(355 295.68)"><path d="m0 0v19.405h9.06v-2.765h-6.097v-5.604h4.296v-2.742h-4.296v-8.294h-2.963z" fill="#00559a"/></g><g transform="translate(386.4 295.68)"><path d="m0 0h-9.061v19.405h9.061v-2.765h-6.098v-5.555h4.321v-2.741h-4.321v-5.604h6.098v-2.74z" fill="#00559a"/></g><g transform="translate(390.45 305.28)"><path d="m0 0c-0.025 4 2.962 10.049 9.925 10.049 2.74 0 4.813-0.766 6.172-1.852v-3.506c-1.408 1.408-3.136 2.618-6.172 2.618-5.012 0-6.865-4.445-6.839-7.309 0-3.135 1.827-7.184 6.839-7.184 2.592 0 4.789 0.913 6.172 2.222v-3.111c-1.532-1.135-3.235-1.852-6.172-1.852-6.963 0.025-9.925 5.53-9.925 9.901v0.024z" fill="#00559a"/></g><g transform="translate(420.35 298.05)"><path d="m0 0c4.346 0.074 7.012 3.383 6.937 7.505-0.098 4.223-2.74 6.888-6.837 6.913-5.012-0.025-6.865-4.32-6.839-7.185-0.074-3.333 1.777-7.183 6.739-7.233m0.1 17.158c5.703-0.049 9.776-3.678 9.899-9.529 0.099-5.728-3.999-10.27-10.048-10.37-6.888 0.074-9.85 5.358-9.776 9.974-0.026 4 2.962 9.901 9.925 9.925" fill="#00559a"/></g><g transform="translate(454.54 315.08)"><path d="m0 0v-19.405h-2.396l-13.875 14.443v-14.443h-2.962v19.405h2.42l13.85-14.468v14.468h2.963z" fill="#00559a"/></g><g transform="translate(469.33 298.05)"><path d="m0 0c4.346 0.074 7.012 3.383 6.938 7.505-0.099 4.223-2.741 6.888-6.838 6.913-5.013-0.025-6.865-4.32-6.839-7.185-0.075-3.333 1.777-7.183 6.739-7.233m0.1 17.158c5.703-0.049 9.776-3.678 9.899-9.529 0.1-5.728-3.999-10.27-10.048-10.37-6.888 0.074-9.851 5.358-9.776 9.974-0.026 4 2.962 9.901 9.925 9.925" fill="#00559a"/></g><g transform="translate(503.08 295.68)"><path d="m0 0v12.936l-6.691-12.936h-2.642l-6.493 12.714v-12.714h-2.962v19.405h3.209l7.653-15.53 7.926 15.53h2.962v-19.405h-2.962z" fill="#00559a"/></g><g transform="translate(519.35 295.68)"><path d="m0 0h-2.963v7.703l-6.394 11.702h3.407l4.641-8.765 4.444 8.765h3.407l-6.542-11.752v-7.653z" fill="#00559a"/></g></g><g clip-path="url(#c)"><g transform="translate(279.62 277.9)"><path d="m0 0c-13.273 6.395-32.262 19.086-32.262 44.191 0 25.104 1.2 36.521 1.2 36.521h62.124s1.203-11.417 1.203-36.521c0-25.105-18.989-37.796-32.265-44.191" fill="#e31e2d"/></g></g><g clip-path="url(#b)"><g transform="translate(282.46 328.67)"><path d="m0 0c3.594-0.06 10.607-0.2 16.85 1.891 0 0-0.164-2.238-0.164-4.84s0.164-4.836 0.164-4.836c-5.725 1.915-12.8 1.955-16.85 1.904v-13.865h-5.676v13.865c-4.052 0.051-11.126 0.011-16.853-1.904 0 0 0.165 2.234 0.165 4.836s-0.165 4.84-0.165 4.84c6.243-2.091 13.257-1.951 16.853-1.891v8.707c-3.276 0.028-7.998-0.128-13.335-1.914 0 0 0.164 2.235 0.164 4.839 0 2.6-0.164 4.836-0.164 4.836 5.328-1.782 10.043-1.942 13.318-1.914-0.169 5.513-1.774 12.464-1.774 12.464s3.306-0.256 4.627-0.256c1.324 0 4.629 0.256 4.629 0.256s-1.606-6.951-1.774-12.464c3.275-0.028 7.99 0.132 13.318 1.914 0 0-0.164-2.236-0.164-4.836 0-2.604 0.164-4.839 0.164-4.839-5.336 1.786-10.058 1.942-13.333 1.914v-8.707" fill="#fff"/></g><g transform="translate(279.04 269.66)"><path d="m0 0-27.505 24.52s3.514 11.371 10.38 11.371c5.453 0 7.443-4.397 7.443-4.397s3.58 9.27 10.265 9.27c6.687 0 10.267-9.27 10.267-9.27s1.989 4.397 7.444 4.397c6.864 0 10.379-11.371 10.379-11.371l-28.673-24.52" fill-rule="evenodd" fill="#00559a"/></g></g><g clip-path="url(#a)"><g transform="translate(350.14 338.96)"><path d="m0 0v12.937l-6.691-12.937h-2.642l-6.493 12.715v-12.715h-2.963v19.405h3.21l7.653-15.529 7.926 15.529h2.962v-19.405h-2.962z" fill="#00559a"/></g><path d="m362.73 338.96h-2.963v19.405h2.963v-19.405z" fill="#00559a"/><g transform="translate(388.63 358.36)"><path d="m0 0v-19.405h-2.396l-13.874 14.443v-14.443h-2.963v19.405h2.419l13.851-14.468v14.468h2.963z" fill="#00559a"/></g><path d="m398.25 338.96h-2.962v19.405h2.962v-19.405z" fill="#00559a"/><g transform="translate(404.35 343.5)"><path d="m0 0c0.864-0.988 2.765-2.074 4.32-2.074 1.803 0 3.112 1.037 3.112 2.814 0 3.358-8.099 2.889-8.099 8.815 0 3.456 2.864 5.554 5.679 5.554 1.827 0 3.209-0.667 3.974-1.333v-3.777c-0.691 1.012-2.173 2.37-3.95 2.37-1.654 0-2.716-1.111-2.716-2.691 0-3.629 8.172-3.012 8.172-8.814 0-3.63-3.036-5.753-6.27-5.753-1.803 0-3.309 0.692-4.222 1.506v3.383z" fill="#00559a"/></g><g transform="translate(416.32 358.36)"><path d="m0 0h15.604v-2.765h-6.321v-16.64h-2.963v16.64h-6.32v2.765z" fill="#00559a"/></g><g transform="translate(438.1 348.96)"><path d="m0 0h1.136c2.567 0 4.173 1.061 4.173 3.407 0 2.246-1.556 3.235-4.099 3.235h-1.21v-6.642zm2.716-2.593c-0.543-0.073-1.111-0.123-1.703-0.123h-1.013v-7.283h-2.962v19.405h4.073c4.469 0 7.382-1.827 7.382-6.049 0-2.246-1.061-3.9-2.766-4.913l7.679-8.443h-4.173l-6.517 7.406z" fill="#00559a"/></g><g transform="translate(459.87 338.96)"><path d="m0 0h-2.963v7.703l-6.394 11.702h3.407l4.641-8.764 4.444 8.764h3.407l-6.542-11.752v-7.653z" fill="#00559a"/></g><g transform="translate(340.21 269.08)"><path d="m0 0c4.346 0.074 7.012 3.383 6.937 7.506-0.098 4.223-2.74 6.889-6.837 6.912-5.012-0.023-6.865-4.32-6.839-7.184-0.075-3.334 1.777-7.183 6.739-7.234m0.1 17.158c5.703-0.049 9.776-3.678 9.899-9.529 0.099-5.727-3.999-10.27-10.048-10.369-6.888 0.074-9.851 5.357-9.776 9.974-0.026 4 2.962 9.901 9.925 9.924" fill="#00559a"/></g><g transform="translate(354.55 266.71)"><path d="m0 0v19.404h9.061v-2.763h-6.098v-5.606h4.296v-2.74h-4.296v-8.295h-2.963z" fill="#00559a"/></g><g transform="translate(375.54 286.11)"><path d="m0 0h15.603v-2.764h-6.32v-16.64h-2.963v16.64h-6.32v2.764z" fill="#00559a"/></g><g transform="translate(407.9 286.11)"><path d="m0 0h2.963v-19.404h-2.963v8.32h-9.851v-8.32h-2.962v19.404h2.962v-8.344h9.851v8.344z" fill="#00559a"/></g><g transform="translate(426.47 266.71)"><path d="m0 0h-9.06v19.404h9.06v-2.763h-6.098v-5.557h4.321v-2.74h-4.321v-5.604h6.098v-2.74z" fill="#00559a"/></g><g transform="translate(440.54 271.25)"><path d="m0 0c0.864-0.988 2.765-2.074 4.32-2.074 1.803 0 3.112 1.037 3.112 2.814 0 3.358-8.099 2.889-8.099 8.815 0 3.455 2.864 5.554 5.679 5.554 1.827 0 3.209-0.668 3.974-1.334v-3.777c-0.691 1.012-2.172 2.371-3.95 2.371-1.654 0-2.716-1.111-2.716-2.691 0-3.629 8.172-3.012 8.172-8.815 0-3.629-3.036-5.752-6.27-5.752-1.803 0-3.309 0.692-4.222 1.506v3.383z" fill="#00559a"/></g><g transform="translate(466.22 266.71)"><path d="m0 0h-10.245v19.404h2.962v-16.664h7.283v-2.74z" fill="#00559a"/></g><g transform="translate(477.47 269.08)"><path d="m0 0c4.346 0.074 7.012 3.383 6.939 7.506-0.1 4.223-2.742 6.889-6.839 6.912-5.013-0.023-6.865-4.32-6.839-7.184-0.075-3.334 1.777-7.183 6.739-7.234m0.1 17.158c5.703-0.049 9.776-3.678 9.899-9.529 0.1-5.727-3.999-10.27-10.048-10.369-6.888 0.074-9.85 5.357-9.776 9.974-0.026 4 2.962 9.901 9.925 9.924" fill="#00559a"/></g><g transform="translate(497.89 270.12)"><path d="m0 0 5.802 15.998h3.184l-7.53-19.404h-3.11l-7.012 19.404h3.184l5.482-15.998z" fill="#00559a"/></g><g transform="translate(514.09 276.04)"><path d="m0 0h4.593l-2.272 6.543-2.321-6.543zm3.852 10.072 7.184-19.404h-3.184l-2.296 6.592h-6.518l-2.321-6.592h-3.185l7.431 19.404h2.889z" fill="#00559a"/></g><g transform="translate(531.05 286.11)"><path d="m0 0v-9.555l8.469 9.555h3.95l-8.987-9.752 8.913-9.652h-4l-8.345 9.257v-9.257h-2.962v19.404h2.962z" fill="#00559a"/></g><g transform="translate(559.02 276.71)"><path d="m0 0h1.136c2.567 0 4.173 1.062 4.173 3.408 0 2.246-1.556 3.235-4.099 3.235h-1.21v-6.643zm2.716-2.592c-0.543-0.074-1.111-0.123-1.703-0.123h-1.013v-7.283h-2.962v19.404h4.073c4.469 0 7.382-1.826 7.382-6.049 0-2.246-1.061-3.9-2.765-4.912l7.678-8.443h-4.173l-6.517 7.406z" fill="#00559a"/></g><g transform="translate(583.34 266.71)"><path d="m0 0h-9.06v19.404h9.06v-2.763h-6.098v-5.557h4.321v-2.74h-4.321v-5.604h6.098v-2.74z" fill="#00559a"/></g><g transform="translate(592.3 276.71)"><path d="m0 0h1.136c2.567 0 4.173 1.062 4.173 3.408 0 2.246-1.556 3.235-4.099 3.235h-1.21v-6.643zm0-2.715v-7.283h-2.962v19.404h4.073c4.469 0 7.382-1.826 7.382-6.049 0-3.925-3.308-6.072-7.48-6.072h-1.013z" fill="#00559a"/></g><g transform="translate(607.21 286.11)"><path d="m0 0v-9.283c0-3.998 1.802-7.801 6.271-7.801 3.703 0 6.246 2.937 6.246 7.777v9.307h2.962v-9.283c0-6.295-3.801-10.492-9.208-10.492-6.419 0-9.234 4.371-9.234 10.468v9.307h2.963z" fill="#00559a"/></g><g transform="translate(632.27 275.35)"><path d="m0 0h-1.186v-5.9h1.087c3.086 0 5.086 0.394 5.086 2.888s-2.124 3.012-4.987 3.012m-0.37 2.74c2.296 0 3.629 0.791 3.629 2.592 0 2.197-2.173 2.691-4.025 2.691h-0.42v-5.283h0.816zm-3.777-11.381v19.405h2.764c4.345 0 7.654-1.358 7.654-5.284 0-1.925-1.038-3.037-2.839-3.58 2.79-0.517 4.641-2.023 4.641-4.863 0-4.766-4.567-5.678-8.543-5.678h-3.677z" fill="#00559a"/></g><g transform="translate(655.28 266.71)"><path d="m0 0h-10.246v19.404h2.963v-16.664h7.283v-2.74z" fill="#00559a"/></g><path d="m661.62 266.71h-2.962v19.404h2.962v-19.404z" fill="#00559a"/><g transform="translate(666.34 276.31)"><path d="m0 0c-0.025 4 2.962 10.049 9.925 10.049 2.74 0 4.813-0.766 6.172-1.852v-3.506c-1.407 1.407-3.136 2.618-6.172 2.618-5.013 0-6.864-4.446-6.839-7.309 0-3.135 1.826-7.184 6.839-7.184 2.592 0 4.789 0.913 6.172 2.221v-3.111c-1.532-1.135-3.235-1.852-6.172-1.852-6.963 0.026-9.925 5.531-9.925 9.901v0.025z" fill="#00559a"/></g><g><path d="m375.82 327.26h-44.501v2.963h44.501v-2.963z" fill="#dadbdc"/><path d="m420.3 327.26h-44.501v2.963h44.501v-2.963z" fill="#00559a"/><path d="m464.78 327.26h-44.502v2.963h44.502v-2.963z" fill="#e31e2d"/></g></g></g></svg>
